# xmcd
#
# Track frame offsets:
#	150
#	15225
#	27712
#	45375
#	59325
#	72825
#	86550
#	98100
#	112537
#	126412
#	146887
#	160387
#	175500
#
# Disc length: 2401 seconds
#
# Revision: 0
# Processed by: cddbd v1.5.2PL0 Copyright (c) Steve Scherf et al.
# Submitted via: EZCDAudioConverter 1.0.8.1
#
DISCID=a5095f0d
DTITLE=Rhonda Vincent - The Storm Still Rages
DYEAR=2001
DGENRE=Country
TTITLE0=Cry Of The Whippoorwill
TTITLE1=Is The Grass Any Bluer
TTITLE2=Don't Lie
TTITLE3=Drivin' Nails In My Coffin
TTITLE4=I'm Not Over You
TTITLE5=Bluegrass Express
TTITLE6=Just Someone I Used To Know
TTITLE7=On Solid Ground
TTITLE8=Each Season Changes You
TTITLE9=My Sweet Love Ain't Around
TTITLE10=You Don't Love God If You Don't Love Your Neighbor
TTITLE11=When The Angels Sing
TTITLE12=The Martha White Theme
EXTD=
EXTT0=
EXTT1=
EXTT2=
EXTT3=
EXTT4=
EXTT5=
EXTT6=
EXTT7=
EXTT8=
EXTT9=
EXTT10=
EXTT11=
EXTT12=
PLAYORDER=
